<svg width="89" height="31" viewBox="0 0 89 31" fill="none" xmlns="http://www.w3.org/2000/svg">
<path d="M13.365 24.715C12.7583 24.715 12.1167 24.6333 11.44 24.47C10.7867 24.33 10.1217 24.1083 9.445 23.805C9.21167 23.6883 8.79167 23.4667 8.185 23.14C7.60167 22.8367 6.83167 22.4167 5.875 21.88C4.94167 22.09 4.02 22.195 3.11 22.195C1.05667 22.195 0.0300001 21.88 0.0300001 21.25C0.0300001 20.9233 0.333333 20.69 0.94 20.55C1.15 20.48 1.36 20.4333 1.57 20.41C1.78 20.3867 1.99 20.375 2.2 20.375C3.11 20.375 4.545 20.6783 6.505 21.285C6.97167 21.1683 7.415 21.04 7.835 20.9C8.27833 20.7367 8.71 20.5733 9.13 20.41C13.47 18.45 16.48 16.315 18.16 14.005C18.5567 13.4217 18.93 12.815 19.28 12.185C19.63 11.5317 19.9333 10.8433 20.19 10.12C20.7967 8.55667 21.1 7.145 21.1 5.885C21.1 2.89833 19.5717 1.405 16.515 1.405C14.5317 1.405 12.525 2.035 10.495 3.295C8.605 4.43833 7.05333 5.89667 5.84 7.67C5.04667 8.81333 4.46333 10.0383 4.09 11.345C3.97333 11.7183 3.88 12.0917 3.81 12.465C3.76333 12.8383 3.74 13.2 3.74 13.55C3.74 14.7167 4.04333 15.6733 4.65 16.42C5.32667 17.19 6.23667 17.575 7.38 17.575C8.40667 17.575 9.445 17.295 10.495 16.735C11.6617 16.0817 12.4083 15.335 12.735 14.495C12.875 14.1683 12.9917 14.005 13.085 14.005C13.1783 14.005 13.225 14.075 13.225 14.215C13.225 14.355 13.2133 14.46 13.19 14.53C12.77 15.58 11.8367 16.4667 10.39 17.19C9.06 17.8667 7.77667 18.205 6.54 18.205C5.28 18.205 4.27667 17.7967 3.53 16.98C2.80667 16.1867 2.445 15.16 2.445 13.9C2.445 11.4733 3.495 8.98833 5.595 6.445C6.94833 4.765 8.58167 3.435 10.495 2.455C12.4783 1.42833 14.4967 0.914999 16.55 0.914999C18.51 0.914999 20.085 1.37 21.275 2.28C22.6283 3.30667 23.305 4.75333 23.305 6.62C23.305 9.18667 22.255 11.7183 20.155 14.215C19.5717 14.9383 18.7667 15.6733 17.74 16.42C16.7367 17.1433 15.5467 17.8783 14.17 18.625C11.7433 19.9317 9.43333 20.9 7.24 21.53C8.87333 22.0433 10.2967 22.44 11.51 22.72C12.7467 23 13.7617 23.14 14.555 23.14C15.3717 23.14 16.1767 23.035 16.97 22.825C18.1133 22.5217 18.685 22.09 18.685 21.53C18.685 21.4833 18.685 21.4367 18.685 21.39C18.685 21.32 18.6733 21.25 18.65 21.18C18.6267 21.0867 18.615 21.0167 18.615 20.97C18.615 20.9 18.615 20.8533 18.615 20.83C18.615 20.6433 18.6617 20.55 18.755 20.55C19.0583 20.55 19.21 20.865 19.21 21.495C19.21 22.4983 18.4517 23.315 16.935 23.945C15.7683 24.4583 14.5783 24.715 13.365 24.715ZM3.32 21.705C3.64667 21.705 3.97333 21.6933 4.3 21.67C4.62667 21.6233 4.95333 21.5767 5.28 21.53C4.32333 21.0167 3.44833 20.76 2.655 20.76C1.675 20.76 1.185 20.9117 1.185 21.215C1.185 21.5417 1.89667 21.705 3.32 21.705ZM23.7843 23.21C23.201 23.21 22.7343 23.0117 22.3843 22.615C22.0577 22.2183 21.8943 21.74 21.8943 21.18C21.8943 20.6667 22.046 19.99 22.3493 19.15C22.676 18.31 23.131 17.3067 23.7143 16.14C23.971 15.6267 24.2977 15.0083 24.6943 14.285C25.1143 13.5383 25.616 12.6867 26.1993 11.73H26.2693C26.4327 11.8467 26.6193 11.905 26.8293 11.905C27.3193 11.905 27.8793 11.66 28.5093 11.17L28.5793 11.24C28.2293 11.6367 27.6227 12.605 26.7593 14.145C26.4793 14.635 26.211 15.09 25.9543 15.51C25.721 15.93 25.4877 16.3267 25.2543 16.7C23.8777 19.0567 23.1893 20.7833 23.1893 21.88C23.1893 22.51 23.481 22.825 24.0643 22.825C25.371 22.825 27.1793 20.7833 29.4893 16.7C29.816 16.1167 30.201 15.3933 30.6443 14.53C31.0877 13.6667 31.601 12.6633 32.1843 11.52H32.2543C32.4177 11.59 32.5693 11.6483 32.7093 11.695C32.8493 11.7417 32.9893 11.765 33.1293 11.765C33.6427 11.765 34.0043 11.5317 34.2143 11.065L34.3193 11.1L31.5893 16.385C29.9793 19.465 29.1743 21.4133 29.1743 22.23C29.1743 22.65 29.3727 22.86 29.7693 22.86C30.0493 22.86 30.3877 22.7433 30.7843 22.51C31.2043 22.2767 31.636 21.915 32.0793 21.425C32.6393 20.7717 33.1177 20.1533 33.5143 19.57C33.9343 18.9633 34.4127 18.1467 34.9493 17.12C35.0193 17.0033 35.0893 16.945 35.1593 16.945C35.2993 16.945 35.2993 17.0617 35.1593 17.295C34.7393 18.0883 34.2843 18.8817 33.7943 19.675C33.3277 20.445 32.756 21.1683 32.0793 21.845C31.1927 22.7317 30.411 23.175 29.7343 23.175C29.1277 23.175 28.661 23.0233 28.3343 22.72C28.031 22.4167 27.8793 21.9267 27.8793 21.25C27.8793 20.69 27.996 20.0717 28.2293 19.395C26.666 21.9383 25.1843 23.21 23.7843 23.21ZM40.3721 9.7C39.6255 9.7 39.2521 9.33833 39.2521 8.615C39.2521 7.82167 39.6138 7.425 40.3371 7.425C41.0838 7.425 41.4571 7.78667 41.4571 8.51C41.4571 9.30333 41.0955 9.7 40.3721 9.7ZM36.2421 23.35C34.7021 23.35 33.9321 22.4983 33.9321 20.795C33.9321 19.5583 34.2938 18.2517 35.0171 16.875L37.6421 11.73H37.7471C37.8171 11.8233 37.9571 11.87 38.1671 11.87C38.6105 11.87 39.1938 11.6017 39.9171 11.065L39.9871 11.135L37.0121 16.91C35.7755 19.29 35.1571 20.9467 35.1571 21.88C35.1571 22.3 35.2738 22.5917 35.5071 22.755C35.7405 22.9183 36.0088 23 36.3121 23C36.6388 23 36.9538 22.93 37.2571 22.79C37.5838 22.65 37.8638 22.4983 38.0971 22.335C38.7271 21.845 39.2521 21.285 39.6721 20.655C40.1155 20.0017 40.5005 19.3483 40.8271 18.695C41.1538 18.0417 41.4455 17.4933 41.7021 17.05C41.7721 16.9333 41.8421 16.8983 41.9121 16.945C41.9821 16.9683 41.9938 17.0383 41.9471 17.155C41.4805 18.135 40.9671 19.1383 40.4071 20.165C39.8471 21.1917 39.1355 22.0083 38.2721 22.615C37.9688 22.825 37.6421 23 37.2921 23.14C36.9655 23.28 36.6155 23.35 36.2421 23.35ZM40.1055 30.91C38.6822 30.91 37.9705 30.385 37.9705 29.335C37.9705 28.005 39.1839 26.5817 41.6105 25.065C42.1239 24.7383 42.8355 24.3417 43.7455 23.875C44.6789 23.4083 45.8105 22.8833 47.1405 22.3V21.95C47.1405 20.6667 46.4055 20.025 44.9355 20.025C44.2589 20.025 43.6172 20.1767 43.0105 20.48C42.7072 20.5967 42.4622 20.655 42.2755 20.655C41.8789 20.655 41.6805 20.515 41.6805 20.235C41.6805 19.8617 42.0772 19.64 42.8705 19.57L44.4805 19.465C45.7172 19.255 46.7205 18.5317 47.4905 17.295C48.1905 16.175 48.5405 14.95 48.5405 13.62C48.5405 12.2433 47.9805 11.555 46.8605 11.555C45.3905 11.555 43.7339 13.4917 41.8905 17.365H41.8205L41.6805 17.33V17.26C41.9139 16.7 42.1589 16.1633 42.4155 15.65C42.6722 15.1367 42.9522 14.635 43.2555 14.145C44.4222 12.2083 45.7172 11.24 47.1405 11.24C49.0072 11.24 49.9405 12.3017 49.9405 14.425C49.9405 16.8283 48.2022 18.59 44.7255 19.71C44.9822 19.6633 45.1922 19.64 45.3555 19.64C45.5189 19.64 45.6472 19.64 45.7405 19.64C46.1372 19.64 46.4989 19.7217 46.8255 19.885C47.1289 20.025 47.4205 20.305 47.7005 20.725C47.9805 21.1683 48.1205 21.5533 48.1205 21.88C48.5172 21.74 48.9489 21.5067 49.4155 21.18C49.8822 20.8533 50.3255 20.4917 50.7455 20.095C51.1889 19.6983 51.5272 19.3367 51.7605 19.01C52.2272 18.3567 52.6355 17.6567 52.9855 16.91C53.0555 16.7933 53.1139 16.735 53.1605 16.735C53.2772 16.735 53.3005 16.8283 53.2305 17.015C53.0672 17.3883 52.8805 17.75 52.6705 18.1C52.4839 18.45 52.2622 18.8 52.0055 19.15C51.5855 19.78 51.0255 20.375 50.3255 20.935C49.6255 21.4717 48.9022 21.8683 48.1555 22.125C48.1789 25.065 46.8022 27.5267 44.0255 29.51C42.6722 30.4433 41.3655 30.91 40.1055 30.91ZM39.4755 30.455C40.6189 30.455 41.9372 29.7433 43.4305 28.32C44.6905 27.0833 45.6472 25.835 46.3005 24.575C46.7672 23.735 47.0122 23.07 47.0355 22.58C46.5689 22.7433 46.1139 22.93 45.6705 23.14C45.2272 23.35 44.8072 23.5717 44.4105 23.805C43.2672 24.4583 42.3689 24.96 41.7155 25.31C41.0855 25.6833 40.7122 25.9167 40.5955 26.01C39.0322 27.13 38.2505 28.2267 38.2505 29.3C38.2505 30.07 38.6589 30.455 39.4755 30.455ZM51.3165 30.91C49.8932 30.91 49.1815 30.385 49.1815 29.335C49.1815 28.005 50.3948 26.5817 52.8215 25.065C53.3348 24.7383 54.0465 24.3417 54.9565 23.875C55.8898 23.4083 57.0215 22.8833 58.3515 22.3V21.95C58.3515 20.6667 57.6165 20.025 56.1465 20.025C55.4698 20.025 54.8282 20.1767 54.2215 20.48C53.9182 20.5967 53.6732 20.655 53.4865 20.655C53.0898 20.655 52.8915 20.515 52.8915 20.235C52.8915 19.8617 53.2882 19.64 54.0815 19.57L55.6915 19.465C56.9282 19.255 57.9315 18.5317 58.7015 17.295C59.4015 16.175 59.7515 14.95 59.7515 13.62C59.7515 12.2433 59.1915 11.555 58.0715 11.555C56.6015 11.555 54.9448 13.4917 53.1015 17.365H53.0315L52.8915 17.33V17.26C53.1248 16.7 53.3698 16.1633 53.6265 15.65C53.8832 15.1367 54.1632 14.635 54.4665 14.145C55.6332 12.2083 56.9282 11.24 58.3515 11.24C60.2182 11.24 61.1515 12.3017 61.1515 14.425C61.1515 16.8283 59.4132 18.59 55.9365 19.71C56.1932 19.6633 56.4032 19.64 56.5665 19.64C56.7298 19.64 56.8582 19.64 56.9515 19.64C57.3482 19.64 57.7098 19.7217 58.0365 19.885C58.3398 20.025 58.6315 20.305 58.9115 20.725C59.1915 21.1683 59.3315 21.5533 59.3315 21.88C59.7282 21.74 60.1598 21.5067 60.6265 21.18C61.0932 20.8533 61.5365 20.4917 61.9565 20.095C62.3998 19.6983 62.7382 19.3367 62.9715 19.01C63.4382 18.3567 63.8465 17.6567 64.1965 16.91C64.2665 16.7933 64.3248 16.735 64.3715 16.735C64.4882 16.735 64.5115 16.8283 64.4415 17.015C64.2782 17.3883 64.0915 17.75 63.8815 18.1C63.6948 18.45 63.4732 18.8 63.2165 19.15C62.7965 19.78 62.2365 20.375 61.5365 20.935C60.8365 21.4717 60.1132 21.8683 59.3665 22.125C59.3898 25.065 58.0132 27.5267 55.2365 29.51C53.8832 30.4433 52.5765 30.91 51.3165 30.91ZM50.6865 30.455C51.8298 30.455 53.1482 29.7433 54.6415 28.32C55.9015 27.0833 56.8582 25.835 57.5115 24.575C57.9782 23.735 58.2232 23.07 58.2465 22.58C57.7798 22.7433 57.3248 22.93 56.8815 23.14C56.4382 23.35 56.0182 23.5717 55.6215 23.805C54.4782 24.4583 53.5798 24.96 52.9265 25.31C52.2965 25.6833 51.9232 25.9167 51.8065 26.01C50.2432 27.13 49.4615 28.2267 49.4615 29.3C49.4615 30.07 49.8698 30.455 50.6865 30.455ZM72.1174 23.105C70.9041 23.105 70.2974 22.265 70.2974 20.585C70.2974 19.9317 70.4024 19.185 70.6124 18.345C68.9791 21.495 67.3574 23.07 65.7474 23.07C64.9774 23.07 64.3941 22.685 63.9974 21.915C63.6708 21.3317 63.5074 20.5967 63.5074 19.71C63.5074 18.9867 63.6124 18.2283 63.8224 17.435C64.2191 16.0583 65.0591 14.7633 66.3424 13.55C67.7658 12.2433 69.1191 11.59 70.4024 11.59C71.5691 11.59 72.1524 12.29 72.1524 13.69C72.1524 14.2967 72.0241 15.0083 71.7674 15.825L73.9024 11.625H74.0074C74.0774 11.7417 74.2291 11.8 74.4624 11.8C74.9291 11.8 75.5241 11.52 76.2474 10.96L76.3174 11.03L73.3424 16.84C72.1524 19.15 71.5574 20.9 71.5574 22.09C71.5574 22.5567 71.7674 22.79 72.1874 22.79C72.4674 22.79 72.8058 22.685 73.2024 22.475C73.5991 22.265 74.0191 21.915 74.4624 21.425C75.0224 20.7717 75.5008 20.1533 75.8974 19.57C76.3174 18.9633 76.7958 18.1467 77.3324 17.12C77.4024 17.0033 77.4724 16.945 77.5424 16.945C77.6824 16.945 77.6824 17.0617 77.5424 17.295C77.1224 18.0883 76.6674 18.8817 76.1774 19.675C75.7108 20.445 75.1391 21.1683 74.4624 21.845C73.6224 22.685 72.8408 23.105 72.1174 23.105ZM65.8874 22.825C67.1941 22.825 68.8741 20.9817 70.9274 17.295C71.5808 16.1283 71.9074 14.95 71.9074 13.76C71.9074 12.5 71.4991 11.87 70.6824 11.87C69.7958 11.87 68.7924 12.605 67.6724 14.075C67.2291 14.6817 66.8441 15.2767 66.5174 15.86C66.2141 16.4433 65.9691 17.0033 65.7824 17.54C65.2924 18.94 65.0474 20.2 65.0474 21.32C65.0474 22.3233 65.3274 22.825 65.8874 22.825ZM79.64 23.28C77.75 23.28 76.805 22.0317 76.805 19.535C76.805 18.0417 77.1316 16.3033 77.785 14.32C78.0883 13.41 78.415 12.535 78.765 11.695C79.115 10.855 79.4883 10.0733 79.885 9.35C80.375 8.46333 80.8883 7.62333 81.425 6.83C81.9616 6.01333 82.5333 5.24333 83.14 4.52C84.89 2.35 86.3833 1.265 87.62 1.265C88.1333 1.265 88.39 1.51 88.39 2C88.39 2.65333 88.1216 3.65667 87.585 5.01C85.7883 9.46667 82.8716 13.5267 78.835 17.19C78.4383 18.66 78.24 19.8383 78.24 20.725C78.24 22.2417 78.7183 23 79.675 23C80.0016 23 80.3166 22.9417 80.62 22.825C80.9233 22.685 81.1916 22.5333 81.425 22.37C82.055 21.88 82.5916 21.3083 83.035 20.655C83.4783 20.0017 83.8633 19.3483 84.19 18.695C84.5166 18.0417 84.8083 17.4933 85.065 17.05C85.135 16.9333 85.205 16.8983 85.275 16.945C85.345 16.9683 85.3566 17.0383 85.31 17.155C84.8433 18.135 84.33 19.1383 83.77 20.165C83.21 21.1917 82.4983 22.0083 81.635 22.615C81.005 23.0583 80.34 23.28 79.64 23.28ZM78.94 16.84C79.4066 16.4433 79.8966 15.9533 80.41 15.37C80.9233 14.7867 81.4716 14.1217 82.055 13.375C82.6383 12.6283 83.2333 11.8 83.84 10.89C84.4466 9.98 85.0533 9 85.66 7.95C87.2933 5.17333 88.11 3.23667 88.11 2.14C88.11 1.74333 87.9816 1.545 87.725 1.545C86.8616 1.545 85.3216 3.4 83.105 7.11C82.5216 8.16 81.9966 9.175 81.53 10.155C80.97 11.3917 80.4683 12.57 80.025 13.69C79.605 14.7867 79.2433 15.8367 78.94 16.84Z" fill="#252873"/>
</svg>
