<svg width="152" height="52" viewBox="0 0 152 52" fill="none" xmlns="http://www.w3.org/2000/svg">
<path d="M23.34 40.94C22.3 40.94 21.2 40.8 20.04 40.52C18.92 40.28 17.78 39.9 16.62 39.38C16.22 39.18 15.5 38.8 14.46 38.24C13.46 37.72 12.14 37 10.5 36.08C8.9 36.44 7.32 36.62 5.76 36.62C2.24 36.62 0.48 36.08 0.48 35C0.48 34.44 1 34.04 2.04 33.8C2.4 33.68 2.76 33.6 3.12 33.56C3.48 33.52 3.84 33.5 4.2 33.5C5.76 33.5 8.22 34.02 11.58 35.06C12.38 34.86 13.14 34.64 13.86 34.4C14.62 34.12 15.36 33.84 16.08 33.56C23.52 30.2 28.68 26.54 31.56 22.58C32.24 21.58 32.88 20.54 33.48 19.46C34.08 18.34 34.6 17.16 35.04 15.92C36.08 13.24 36.6 10.82 36.6 8.66C36.6 3.54 33.98 0.979997 28.74 0.979997C25.34 0.979997 21.9 2.06 18.42 4.22C15.18 6.18 12.52 8.68 10.44 11.72C9.08 13.68 8.08 15.78 7.44 18.02C7.24 18.66 7.08 19.3 6.96 19.94C6.88 20.58 6.84 21.2 6.84 21.8C6.84 23.8 7.36 25.44 8.4 26.72C9.56 28.04 11.12 28.7 13.08 28.7C14.84 28.7 16.62 28.22 18.42 27.26C20.42 26.14 21.7 24.86 22.26 23.42C22.5 22.86 22.7 22.58 22.86 22.58C23.02 22.58 23.1 22.7 23.1 22.94C23.1 23.18 23.08 23.36 23.04 23.48C22.32 25.28 20.72 26.8 18.24 28.04C15.96 29.2 13.76 29.78 11.64 29.78C9.48 29.78 7.76 29.08 6.48 27.68C5.24 26.32 4.62 24.56 4.62 22.4C4.62 18.24 6.42 13.98 10.02 9.62C12.34 6.74 15.14 4.46 18.42 2.78C21.82 1.02 25.28 0.139997 28.8 0.139997C32.16 0.139997 34.86 0.919998 36.9 2.48C39.22 4.24 40.38 6.72 40.38 9.92C40.38 14.32 38.58 18.66 34.98 22.94C33.98 24.18 32.6 25.44 30.84 26.72C29.12 27.96 27.08 29.22 24.72 30.5C20.56 32.74 16.6 34.4 12.84 35.48C15.64 36.36 18.08 37.04 20.16 37.52C22.28 38 24.02 38.24 25.38 38.24C26.78 38.24 28.16 38.06 29.52 37.7C31.48 37.18 32.46 36.44 32.46 35.48C32.46 35.4 32.46 35.32 32.46 35.24C32.46 35.12 32.44 35 32.4 34.88C32.36 34.72 32.34 34.6 32.34 34.52C32.34 34.4 32.34 34.32 32.34 34.28C32.34 33.96 32.42 33.8 32.58 33.8C33.1 33.8 33.36 34.34 33.36 35.42C33.36 37.14 32.06 38.54 29.46 39.62C27.46 40.5 25.42 40.94 23.34 40.94ZM6.12 35.78C6.68 35.78 7.24 35.76 7.8 35.72C8.36 35.64 8.92 35.56 9.48 35.48C7.84 34.6 6.34 34.16 4.98 34.16C3.3 34.16 2.46 34.42 2.46 34.94C2.46 35.5 3.68 35.78 6.12 35.78ZM41.2017 38.36C40.2017 38.36 39.4017 38.02 38.8017 37.34C38.2417 36.66 37.9617 35.84 37.9617 34.88C37.9617 34 38.2217 32.84 38.7417 31.4C39.3017 29.96 40.0817 28.24 41.0817 26.24C41.5217 25.36 42.0817 24.3 42.7617 23.06C43.4817 21.78 44.3417 20.32 45.3417 18.68H45.4617C45.7417 18.88 46.0617 18.98 46.4217 18.98C47.2617 18.98 48.2217 18.56 49.3017 17.72L49.4217 17.84C48.8217 18.52 47.7817 20.18 46.3017 22.82C45.8217 23.66 45.3617 24.44 44.9217 25.16C44.5217 25.88 44.1217 26.56 43.7217 27.2C41.3617 31.24 40.1817 34.2 40.1817 36.08C40.1817 37.16 40.6817 37.7 41.6817 37.7C43.9217 37.7 47.0217 34.2 50.9817 27.2C51.5417 26.2 52.2017 24.96 52.9617 23.48C53.7217 22 54.6017 20.28 55.6017 18.32H55.7217C56.0017 18.44 56.2617 18.54 56.5017 18.62C56.7417 18.7 56.9817 18.74 57.2217 18.74C58.1017 18.74 58.7217 18.34 59.0817 17.54L59.2617 17.6L54.5817 26.66C51.8217 31.94 50.4417 35.28 50.4417 36.68C50.4417 37.4 50.7817 37.76 51.4617 37.76C51.9417 37.76 52.5217 37.56 53.2017 37.16C53.9217 36.76 54.6617 36.14 55.4217 35.3C56.3817 34.18 57.2017 33.12 57.8817 32.12C58.6017 31.08 59.4217 29.68 60.3417 27.92C60.4617 27.72 60.5817 27.62 60.7017 27.62C60.9417 27.62 60.9417 27.82 60.7017 28.22C59.9817 29.58 59.2017 30.94 58.3617 32.3C57.5617 33.62 56.5817 34.86 55.4217 36.02C53.9017 37.54 52.5617 38.3 51.4017 38.3C50.3617 38.3 49.5617 38.04 49.0017 37.52C48.4817 37 48.2217 36.16 48.2217 35C48.2217 34.04 48.4217 32.98 48.8217 31.82C46.1417 36.18 43.6017 38.36 41.2017 38.36ZM69.638 15.2C68.358 15.2 67.718 14.58 67.718 13.34C67.718 11.98 68.338 11.3 69.578 11.3C70.858 11.3 71.498 11.92 71.498 13.16C71.498 14.52 70.878 15.2 69.638 15.2ZM62.558 38.6C59.918 38.6 58.598 37.14 58.598 34.22C58.598 32.1 59.218 29.86 60.458 27.5L64.958 18.68H65.138C65.258 18.84 65.498 18.92 65.858 18.92C66.618 18.92 67.618 18.46 68.858 17.54L68.978 17.66L63.878 27.56C61.758 31.64 60.698 34.48 60.698 36.08C60.698 36.8 60.898 37.3 61.298 37.58C61.698 37.86 62.158 38 62.678 38C63.238 38 63.778 37.88 64.298 37.64C64.858 37.4 65.338 37.14 65.738 36.86C66.818 36.02 67.718 35.06 68.438 33.98C69.198 32.86 69.858 31.74 70.418 30.62C70.978 29.5 71.478 28.56 71.918 27.8C72.038 27.6 72.158 27.54 72.278 27.62C72.398 27.66 72.418 27.78 72.338 27.98C71.538 29.66 70.658 31.38 69.698 33.14C68.738 34.9 67.518 36.3 66.038 37.34C65.518 37.7 64.958 38 64.358 38.24C63.798 38.48 63.198 38.6 62.558 38.6ZM69.1809 51.56C66.7409 51.56 65.5209 50.66 65.5209 48.86C65.5209 46.58 67.6009 44.14 71.7609 41.54C72.6409 40.98 73.8609 40.3 75.4209 39.5C77.0209 38.7 78.9609 37.8 81.2409 36.8V36.2C81.2409 34 79.9809 32.9 77.4609 32.9C76.3009 32.9 75.2009 33.16 74.1609 33.68C73.6409 33.88 73.2209 33.98 72.9009 33.98C72.2209 33.98 71.8809 33.74 71.8809 33.26C71.8809 32.62 72.5609 32.24 73.9209 32.12L76.6809 31.94C78.8009 31.58 80.5209 30.34 81.8409 28.22C83.0409 26.3 83.6409 24.2 83.6409 21.92C83.6409 19.56 82.6809 18.38 80.7609 18.38C78.2409 18.38 75.4009 21.7 72.2409 28.34H72.1209L71.8809 28.28V28.16C72.2809 27.2 72.7009 26.28 73.1409 25.4C73.5809 24.52 74.0609 23.66 74.5809 22.82C76.5809 19.5 78.8009 17.84 81.2409 17.84C84.4409 17.84 86.0409 19.66 86.0409 23.3C86.0409 27.42 83.0609 30.44 77.1009 32.36C77.5409 32.28 77.9009 32.24 78.1809 32.24C78.4609 32.24 78.6809 32.24 78.8409 32.24C79.5209 32.24 80.1409 32.38 80.7009 32.66C81.2209 32.9 81.7209 33.38 82.2009 34.1C82.6809 34.86 82.9209 35.52 82.9209 36.08C83.6009 35.84 84.3409 35.44 85.1409 34.88C85.9409 34.32 86.7009 33.7 87.4209 33.02C88.1809 32.34 88.7609 31.72 89.1609 31.16C89.9609 30.04 90.6609 28.84 91.2609 27.56C91.3809 27.36 91.4809 27.26 91.5609 27.26C91.7609 27.26 91.8009 27.42 91.6809 27.74C91.4009 28.38 91.0809 29 90.7209 29.6C90.4009 30.2 90.0209 30.8 89.5809 31.4C88.8609 32.48 87.9009 33.5 86.7009 34.46C85.5009 35.38 84.2609 36.06 82.9809 36.5C83.0209 41.54 80.6609 45.76 75.9009 49.16C73.5809 50.76 71.3409 51.56 69.1809 51.56ZM68.1009 50.78C70.0609 50.78 72.3209 49.56 74.8809 47.12C77.0409 45 78.6809 42.86 79.8009 40.7C80.6009 39.26 81.0209 38.12 81.0609 37.28C80.2609 37.56 79.4809 37.88 78.7209 38.24C77.9609 38.6 77.2409 38.98 76.5609 39.38C74.6009 40.5 73.0609 41.36 71.9409 41.96C70.8609 42.6 70.2209 43 70.0209 43.16C67.3409 45.08 66.0009 46.96 66.0009 48.8C66.0009 50.12 66.7009 50.78 68.1009 50.78ZM88.3997 51.56C85.9597 51.56 84.7397 50.66 84.7397 48.86C84.7397 46.58 86.8197 44.14 90.9797 41.54C91.8597 40.98 93.0797 40.3 94.6397 39.5C96.2397 38.7 98.1797 37.8 100.46 36.8V36.2C100.46 34 99.1997 32.9 96.6797 32.9C95.5197 32.9 94.4197 33.16 93.3797 33.68C92.8597 33.88 92.4397 33.98 92.1197 33.98C91.4397 33.98 91.0997 33.74 91.0997 33.26C91.0997 32.62 91.7797 32.24 93.1397 32.12L95.8997 31.94C98.0197 31.58 99.7397 30.34 101.06 28.22C102.26 26.3 102.86 24.2 102.86 21.92C102.86 19.56 101.9 18.38 99.9797 18.38C97.4597 18.38 94.6197 21.7 91.4597 28.34H91.3397L91.0997 28.28V28.16C91.4997 27.2 91.9197 26.28 92.3597 25.4C92.7997 24.52 93.2797 23.66 93.7997 22.82C95.7997 19.5 98.0197 17.84 100.46 17.84C103.66 17.84 105.26 19.66 105.26 23.3C105.26 27.42 102.28 30.44 96.3197 32.36C96.7597 32.28 97.1197 32.24 97.3997 32.24C97.6797 32.24 97.8997 32.24 98.0597 32.24C98.7397 32.24 99.3597 32.38 99.9197 32.66C100.44 32.9 100.94 33.38 101.42 34.1C101.9 34.86 102.14 35.52 102.14 36.08C102.82 35.84 103.56 35.44 104.36 34.88C105.16 34.32 105.92 33.7 106.64 33.02C107.4 32.34 107.98 31.72 108.38 31.16C109.18 30.04 109.88 28.84 110.48 27.56C110.6 27.36 110.7 27.26 110.78 27.26C110.98 27.26 111.02 27.42 110.9 27.74C110.62 28.38 110.3 29 109.94 29.6C109.62 30.2 109.24 30.8 108.8 31.4C108.08 32.48 107.12 33.5 105.92 34.46C104.72 35.38 103.48 36.06 102.2 36.5C102.24 41.54 99.8797 45.76 95.1197 49.16C92.7997 50.76 90.5597 51.56 88.3997 51.56ZM87.3197 50.78C89.2797 50.78 91.5397 49.56 94.0997 47.12C96.2597 45 97.8997 42.86 99.0197 40.7C99.8197 39.26 100.24 38.12 100.28 37.28C99.4797 37.56 98.6997 37.88 97.9397 38.24C97.1797 38.6 96.4597 38.98 95.7797 39.38C93.8197 40.5 92.2797 41.36 91.1597 41.96C90.0797 42.6 89.4397 43 89.2397 43.16C86.5597 45.08 85.2197 46.96 85.2197 48.8C85.2197 50.12 85.9197 50.78 87.3197 50.78ZM124.058 38.18C121.978 38.18 120.938 36.74 120.938 33.86C120.938 32.74 121.118 31.46 121.478 30.02C118.678 35.42 115.898 38.12 113.138 38.12C111.818 38.12 110.818 37.46 110.138 36.14C109.578 35.14 109.298 33.88 109.298 32.36C109.298 31.12 109.478 29.82 109.838 28.46C110.518 26.1 111.958 23.88 114.158 21.8C116.598 19.56 118.918 18.44 121.118 18.44C123.118 18.44 124.118 19.64 124.118 22.04C124.118 23.08 123.898 24.3 123.458 25.7L127.118 18.5H127.298C127.418 18.7 127.678 18.8 128.078 18.8C128.878 18.8 129.898 18.32 131.138 17.36L131.258 17.48L126.158 27.44C124.118 31.4 123.098 34.4 123.098 36.44C123.098 37.24 123.458 37.64 124.178 37.64C124.658 37.64 125.238 37.46 125.918 37.1C126.598 36.74 127.318 36.14 128.078 35.3C129.038 34.18 129.858 33.12 130.538 32.12C131.258 31.08 132.078 29.68 132.998 27.92C133.118 27.72 133.238 27.62 133.358 27.62C133.598 27.62 133.598 27.82 133.358 28.22C132.638 29.58 131.858 30.94 131.018 32.3C130.218 33.62 129.238 34.86 128.078 36.02C126.638 37.46 125.298 38.18 124.058 38.18ZM113.378 37.7C115.618 37.7 118.498 34.54 122.018 28.22C123.138 26.22 123.698 24.2 123.698 22.16C123.698 20 122.998 18.92 121.598 18.92C120.078 18.92 118.358 20.18 116.438 22.7C115.678 23.74 115.018 24.76 114.458 25.76C113.938 26.76 113.518 27.72 113.198 28.64C112.358 31.04 111.938 33.2 111.938 35.12C111.938 36.84 112.418 37.7 113.378 37.7ZM136.954 38.48C133.714 38.48 132.094 36.34 132.094 32.06C132.094 29.5 132.654 26.52 133.774 23.12C134.294 21.56 134.854 20.06 135.454 18.62C136.054 17.18 136.694 15.84 137.374 14.6C138.214 13.08 139.094 11.64 140.014 10.28C140.934 8.88 141.914 7.56 142.954 6.32C145.954 2.6 148.514 0.739997 150.634 0.739997C151.514 0.739997 151.954 1.16 151.954 2C151.954 3.12 151.494 4.84 150.574 7.16C147.494 14.8 142.494 21.76 135.574 28.04C134.894 30.56 134.554 32.58 134.554 34.1C134.554 36.7 135.374 38 137.014 38C137.574 38 138.114 37.9 138.634 37.7C139.154 37.46 139.614 37.2 140.014 36.92C141.094 36.08 142.014 35.1 142.774 33.98C143.534 32.86 144.194 31.74 144.754 30.62C145.314 29.5 145.814 28.56 146.254 27.8C146.374 27.6 146.494 27.54 146.614 27.62C146.734 27.66 146.754 27.78 146.674 27.98C145.874 29.66 144.994 31.38 144.034 33.14C143.074 34.9 141.854 36.3 140.374 37.34C139.294 38.1 138.154 38.48 136.954 38.48ZM135.754 27.44C136.554 26.76 137.394 25.92 138.274 24.92C139.154 23.92 140.094 22.78 141.094 21.5C142.094 20.22 143.114 18.8 144.154 17.24C145.194 15.68 146.234 14 147.274 12.2C150.074 7.44 151.474 4.12 151.474 2.24C151.474 1.56 151.254 1.22 150.814 1.22C149.334 1.22 146.694 4.4 142.894 10.76C141.894 12.56 140.994 14.3 140.194 15.98C139.234 18.1 138.374 20.12 137.614 22.04C136.894 23.92 136.274 25.72 135.754 27.44Z" fill="#4D5B9E"/>
</svg>
